<svg width="17" height="17" viewBox="0 0 17 17" fill="none" xmlns="http://www.w3.org/2000/svg">
<path d="M9.91634 1.41675H4.24967C3.87395 1.41675 3.51362 1.566 3.24794 1.83168C2.98226 2.09736 2.83301 2.45769 2.83301 2.83341V14.1667C2.83301 14.5425 2.98226 14.9028 3.24794 15.1685C3.51362 15.4342 3.87395 15.5834 4.24967 15.5834H12.7497C13.1254 15.5834 13.4857 15.4342 13.7514 15.1685C14.0171 14.9028 14.1663 14.5425 14.1663 14.1667V5.66675L9.91634 1.41675Z" stroke="#DA5C5C" stroke-width="2" stroke-linecap="round" stroke-linejoin="round"/>
<path d="M9.91699 1.41675V5.66675H14.167" stroke="#DA5C5C" stroke-width="2" stroke-linecap="round" stroke-linejoin="round"/>
<path d="M11.3337 9.20825H5.66699" stroke="#DA5C5C" stroke-width="2" stroke-linecap="round" stroke-linejoin="round"/>
<path d="M11.3337 12.0417H5.66699" stroke="#DA5C5C" stroke-width="2" stroke-linecap="round" stroke-linejoin="round"/>
<path d="M7.08366 6.375H6.37533H5.66699" stroke="#DA5C5C" stroke-width="2" stroke-linecap="round" stroke-linejoin="round"/>
</svg>
