<?xml version="1.0" standalone="no"?>
<!DOCTYPE svg PUBLIC "-//W3C//DTD SVG 20010904//EN"
 "http://www.w3.org/TR/2001/REC-SVG-20010904/DTD/svg10.dtd">
<svg version="1.0" xmlns="http://www.w3.org/2000/svg"
 width="256.000000pt" height="256.000000pt" viewBox="0 0 256.000000 256.000000"
 preserveAspectRatio="xMidYMid meet">

<g transform="translate(0.000000,256.000000) scale(0.100000,-0.100000)"
fill="#111" stroke="none">
<path d="M1140 2554 c-208 -27 -407 -101 -580 -217 -96 -64 -273 -241 -337
-337 -95 -142 -163 -302 -199 -470 -26 -119 -26 -381 0 -500 55 -257 169 -466
355 -651 185 -186 394 -300 651 -355 119 -26 381 -26 500 0 257 55 466 169
651 355 186 185 300 394 355 651 26 119 26 381 0 500 -55 257 -169 466 -355
651 -182 182 -382 293 -631 350 -83 19 -331 33 -410 23z m310 -169 c235 -35
449 -144 620 -315 340 -340 425 -845 216 -1275 -340 -699 -1251 -850 -1801
-300 -250 250 -367 612 -310 960 57 352 277 655 594 819 213 110 443 148 681
111z"/>
<path d="M1144 1662 c-375 -147 -691 -276 -703 -286 -20 -19 -27 -58 -15 -90
10 -25 353 -239 383 -239 14 0 63 16 109 36 l83 36 -30 -35 -31 -35 0 -183 c0
-170 1 -185 21 -210 15 -20 29 -26 57 -26 34 0 47 9 131 94 l94 95 188 -95
c104 -52 200 -94 215 -94 38 0 61 16 73 52 15 48 211 1138 211 1174 0 39 -36
74 -76 74 -16 -1 -336 -121 -710 -268z m602 41 c-3 -10 -39 -209 -82 -443 -42
-234 -78 -426 -79 -428 -2 -2 -75 33 -164 77 -191 96 -208 99 -275 40 l-46
-41 0 38 c0 36 10 48 170 209 153 154 170 175 170 205 0 43 -33 80 -72 80 -16
0 -143 -49 -282 -110 -139 -60 -259 -110 -267 -110 -15 0 -142 81 -135 87 7 7
1041 412 1054 412 8 1 11 -6 8 -16z"/>
</g>
</svg>
