<?xml version="1.0" standalone="no"?>
<!DOCTYPE svg PUBLIC "-//W3C//DTD SVG 20010904//EN"
 "http://www.w3.org/TR/2001/REC-SVG-20010904/DTD/svg10.dtd">
<svg version="1.0" xmlns="http://www.w3.org/2000/svg"
 width="256.000000pt" height="256.000000pt" viewBox="0 0 256.000000 256.000000"
 preserveAspectRatio="xMidYMid meet">

<g transform="translate(0.000000,256.000000) scale(0.100000,-0.100000)"
fill="#fff" stroke="none">
<path d="M1155 2504 c-130 -14 -311 -67 -420 -121 -227 -114 -441 -327 -555
-552 -39 -79 -85 -211 -106 -311 -25 -118 -25 -362 0 -480 53 -249 161 -447
340 -626 242 -243 521 -358 866 -358 346 0 621 113 866 358 242 241 358 521
358 866 0 345 -116 625 -358 866 -179 179 -363 280 -606 335 -84 18 -303 32
-385 23z m390 -289 c423 -125 704 -497 705 -931 1 -542 -428 -973 -966 -974
-440 0 -809 276 -940 705 -26 84 -28 103 -28 265 0 162 2 181 28 265 83 272
256 480 501 603 159 80 267 102 465 98 121 -3 160 -8 235 -31z"/>
<path d="M1134 1719 c-27 -10 -63 -33 -79 -49 l-29 -30 37 0 c61 0 71 -27 63
-163 -15 -260 -45 -258 -211 8 -51 83 -103 163 -115 178 l-22 28 -125 -3
c-161 -4 -160 -3 -109 -130 92 -223 195 -389 331 -530 137 -142 239 -197 385
-205 102 -6 110 -1 121 85 10 70 49 112 103 112 38 0 58 -13 176 -123 l85 -78
122 3 c112 3 123 5 147 27 32 30 41 72 24 105 -24 45 -131 166 -185 208 -75
58 -74 61 42 223 87 121 142 211 150 246 6 23 2 28 -33 42 -60 24 -201 42
-237 31 -40 -13 -108 -113 -191 -281 -70 -144 -92 -165 -126 -123 -20 25 -22
40 -23 240 0 201 1 200 -143 199 -81 0 -119 -5 -158 -20z"/>
</g>
</svg>
