<?xml version="1.0" standalone="no"?>
<!DOCTYPE svg PUBLIC "-//W3C//DTD SVG 20010904//EN"
 "http://www.w3.org/TR/2001/REC-SVG-20010904/DTD/svg10.dtd">
<svg version="1.0" xmlns="http://www.w3.org/2000/svg"
 width="70.000000pt" height="70.000000pt" viewBox="0 0 70.000000 70.000000"
 preserveAspectRatio="xMidYMid meet">

<g transform="translate(0.000000,70.000000) scale(0.100000,-0.100000)"
fill="#000000" stroke="none">
<path d="M512 663 c-12 -3 -37 -20 -55 -38 -18 -18 -45 -37 -60 -40 -15 -4
-30 -11 -32 -16 -3 -4 -17 -4 -32 2 -14 5 -40 7 -57 4 -26 -5 -36 -1 -65 29
-19 20 -42 36 -51 36 -18 0 -160 -140 -160 -158 0 -6 17 -31 37 -53 53 -59 64
-96 39 -131 -18 -25 -18 -28 -2 -52 9 -15 22 -26 29 -26 7 0 17 -10 22 -22 6
-13 19 -27 31 -32 11 -5 25 -19 30 -30 5 -12 18 -25 30 -30 11 -5 25 -18 30
-29 16 -36 41 -44 74 -25 28 16 32 16 59 1 27 -16 30 -16 55 0 14 10 26 23 26
30 0 7 10 17 23 22 12 6 26 19 31 31 5 11 19 25 30 30 12 5 25 19 31 32 5 12
15 22 22 22 7 0 20 11 29 25 15 23 15 27 0 50 -13 20 -14 30 -5 46 6 12 9 32
6 45 -3 17 6 33 34 60 42 41 48 64 23 85 -9 8 -25 33 -35 56 -25 58 -76 87
-137 76z m-312 -88 c32 -33 37 -35 82 -29 27 4 48 3 48 -3 0 -5 -18 -27 -40
-48 -43 -42 -50 -73 -24 -99 23 -23 49 -20 86 12 43 37 65 44 91 31 30 -15
167 -151 167 -165 0 -6 -7 -17 -15 -24 -13 -11 -22 -7 -53 23 -36 35 -62 47
-62 29 0 -4 16 -23 35 -42 65 -63 32 -104 -35 -44 -54 49 -74 39 -27 -13 20
-22 37 -48 37 -57 0 -26 -34 -18 -66 15 -16 17 -41 37 -56 45 -16 8 -28 21
-28 30 0 8 -11 19 -24 24 -13 5 -27 18 -31 29 -3 12 -17 24 -31 27 -13 3 -24
12 -24 19 0 20 -29 45 -52 45 -12 0 -30 -8 -40 -17 -16 -15 -21 -15 -28 -3 -5
8 -6 18 -3 23 3 5 -4 19 -16 31 l-21 22 35 34 c19 19 35 38 35 42 0 18 -28 6
-55 -22 -33 -34 -43 -37 -52 -14 -4 10 13 35 53 75 32 32 63 59 69 59 6 0 26
-16 45 -35z m227 -45 c3 -17 10 -33 14 -36 20 -12 7 -24 -26 -24 -24 0 -45 -9
-68 -30 -39 -34 -62 -38 -71 -14 -8 20 101 134 128 134 10 0 19 -11 23 -30z
m243 -24 c0 -16 -28 -42 -36 -33 -7 6 18 47 28 47 5 0 8 -6 8 -14z m-62 -73
c-7 -8 -11 -30 -9 -48 1 -18 -2 -35 -7 -39 -5 -3 -30 16 -56 43 l-47 48 46 0
c25 0 51 5 57 11 16 16 31 3 16 -15z m-408 -102 c0 -9 -18 -34 -40 -56 -33
-32 -41 -36 -55 -25 -23 19 -18 35 25 74 40 36 70 39 70 7z m58 -57 c4 -26
-70 -96 -93 -88 -25 10 -17 36 22 76 40 41 66 46 71 12z m59 -50 c7 -19 -63
-94 -89 -94 -29 0 -21 31 19 72 40 41 60 47 70 22z m60 -60 c7 -19 -63 -94
-88 -94 -32 0 -29 30 7 70 38 42 70 51 81 24z m56 -79 c-6 -18 -34 -20 -50 -4
-9 9 -8 18 5 35 17 23 17 23 34 3 9 -11 14 -27 11 -34z"/>
<path d="M150 550 c0 -5 7 -10 15 -10 8 0 15 5 15 10 0 6 -7 10 -15 10 -8 0
-15 -4 -15 -10z"/>
</g>
</svg>
