<?xml version="1.0" standalone="no"?>
<!DOCTYPE svg PUBLIC "-//W3C//DTD SVG 20010904//EN"
 "http://www.w3.org/TR/2001/REC-SVG-20010904/DTD/svg10.dtd">
<svg version="1.0" xmlns="http://www.w3.org/2000/svg"
 width="70.000000pt" height="70.000000pt" viewBox="0 0 70.000000 70.000000"
 preserveAspectRatio="xMidYMid meet">

<g transform="translate(0.000000,70.000000) scale(0.100000,-0.100000)"
fill="#000000" stroke="none">
<path d="M67 682 c-12 -13 -17 -37 -17 -75 l0 -57 45 0 45 0 0 -255 c0 -242 1
-256 20 -275 19 -19 33 -20 238 -20 249 0 252 1 252 78 0 40 -1 42 -30 42
l-30 0 0 274 c0 236 -2 277 -16 290 -13 14 -50 16 -253 16 -218 0 -239 -2
-254 -18z m61 -14 c7 -7 12 -31 12 -55 0 -42 0 -43 -35 -43 -35 0 -35 1 -35
43 0 58 28 85 58 55z m430 0 c9 -9 12 -85 12 -280 l0 -268 -167 -2 -168 -3 -3
-35 c-3 -33 -17 -60 -31 -60 -3 0 -13 5 -21 10 -13 8 -16 59 -20 330 l-5 320
196 0 c138 0 198 -3 207 -12z m72 -601 c0 -44 -14 -47 -203 -47 l-179 0 6 23
c3 12 6 28 6 35 0 9 44 12 185 12 l185 0 0 -23z"/>
<path d="M333 663 c-13 -3 -36 -17 -52 -33 -48 -49 -48 -111 0 -160 16 -16 39
-31 52 -33 13 -3 8 -5 -15 -6 -21 0 -38 -5 -38 -11 0 -6 33 -10 80 -10 47 0
80 4 80 10 0 6 -17 10 -37 11 -37 1 -37 1 -10 9 39 12 58 29 74 68 34 82 -43
171 -134 155z"/>
<path d="M190 360 c0 -5 23 -10 50 -10 28 0 50 5 50 10 0 6 -22 10 -50 10 -27
0 -50 -4 -50 -10z"/>
<path d="M320 360 c0 -6 45 -10 115 -10 70 0 115 4 115 10 0 6 -45 10 -115 10
-70 0 -115 -4 -115 -10z"/>
<path d="M190 315 c0 -12 20 -15 120 -15 100 0 120 3 120 15 0 13 -20 15 -120
15 -100 0 -120 -2 -120 -15z"/>
<path d="M460 315 c0 -11 12 -15 45 -15 33 0 45 4 45 15 0 11 -12 15 -45 15
-33 0 -45 -4 -45 -15z"/>
<path d="M190 270 c0 -5 23 -10 50 -10 28 0 50 5 50 10 0 6 -22 10 -50 10 -27
0 -50 -4 -50 -10z"/>
<path d="M320 270 c0 -6 45 -10 115 -10 70 0 115 4 115 10 0 6 -45 10 -115 10
-70 0 -115 -4 -115 -10z"/>
<path d="M190 220 c0 -5 9 -10 20 -10 11 0 20 5 20 10 0 6 -9 10 -20 10 -11 0
-20 -4 -20 -10z"/>
<path d="M260 220 c0 -6 55 -10 145 -10 90 0 145 4 145 10 0 6 -55 10 -145 10
-90 0 -145 -4 -145 -10z"/>
<path d="M190 175 c0 -12 17 -15 90 -15 73 0 90 3 90 15 0 12 -17 15 -90 15
-73 0 -90 -3 -90 -15z"/>
<path d="M400 175 c0 -12 15 -15 75 -15 60 0 75 3 75 15 0 12 -15 15 -75 15
-60 0 -75 -3 -75 -15z"/>
</g>
</svg>
