<?xml version="1.0" standalone="no"?>
<!DOCTYPE svg PUBLIC "-//W3C//DTD SVG 20010904//EN"
 "http://www.w3.org/TR/2001/REC-SVG-20010904/DTD/svg10.dtd">
<svg version="1.0" xmlns="http://www.w3.org/2000/svg"
 width="50.000000pt" height="50.000000pt" viewBox="0 0 50.000000 50.000000"
 preserveAspectRatio="xMidYMid meet">

<g transform="translate(0.000000,50.000000) scale(0.100000,-0.100000)"
fill="#000000" stroke="none">
<path d="M4 486 c-3 -8 -4 -31 -2 -52 2 -32 7 -40 25 -42 21 -3 23 -9 23 -58
0 -96 58 -174 147 -200 48 -14 58 -14 106 0 89 26 147 104 147 200 0 49 2 55
23 58 19 3 22 9 22 53 l0 50 -243 3 c-201 2 -243 0 -248 -12z m466 -41 l0 -25
-220 0 -220 0 0 25 0 25 220 0 220 0 0 -25z m-50 -105 c0 -60 -18 -106 -54
-140 l-27 -24 16 37 c49 119 -94 217 -184 126 -35 -35 -43 -72 -26 -122 l13
-39 -25 24 c-35 32 -53 78 -53 138 l0 50 170 0 170 0 0 -50z"/>
<path d="M64 155 c-14 -35 72 -113 97 -88 10 10 8 14 -7 19 -26 10 -64 45 -64
60 0 20 -20 27 -26 9z"/>
<path d="M411 148 c-10 -26 -37 -52 -64 -61 -21 -8 -14 -27 10 -27 20 0 83 63
83 83 0 26 -20 30 -29 5z"/>
<path d="M4 145 c-10 -25 38 -98 81 -122 22 -12 48 -23 58 -23 28 0 19 27 -12
33 -37 8 -90 61 -98 98 -6 31 -20 38 -29 14z"/>
<path d="M467 131 c-8 -37 -61 -90 -98 -98 -31 -6 -40 -33 -11 -33 9 0 35 11
57 23 43 24 91 97 81 122 -9 24 -23 17 -29 -14z"/>
</g>
</svg>
