<?xml version="1.0" standalone="no"?>
<!DOCTYPE svg PUBLIC "-//W3C//DTD SVG 20010904//EN"
 "http://www.w3.org/TR/2001/REC-SVG-20010904/DTD/svg10.dtd">
<svg version="1.0" xmlns="http://www.w3.org/2000/svg"
 width="70.000000pt" height="70.000000pt" viewBox="0 0 70.000000 70.000000"
 preserveAspectRatio="xMidYMid meet">

<g transform="translate(0.000000,70.000000) scale(0.100000,-0.100000)"
fill="#000000" stroke="none">
<path d="M57 642 l-57 -58 0 -292 0 -292 111 0 c84 0 110 3 107 13 -3 8 -34
13 -96 15 l-92 3 0 264 0 264 53 3 52 3 3 53 3 52 180 0 179 0 0 -193 c0 -107
-3 -197 -7 -200 -3 -4 -17 3 -30 15 -29 28 -78 28 -105 0 -18 -18 -19 -23 -8
-37 19 -22 5 -30 -29 -16 -26 11 -31 10 -57 -16 -16 -15 -37 -39 -46 -53 -10
-14 -23 -25 -30 -25 -20 0 -20 -22 2 -28 11 -3 20 -12 20 -21 0 -9 11 -34 25
-55 l26 -38 134 -2 135 -2 0 35 c0 26 4 34 14 30 8 -3 21 5 30 18 22 31 20 81
-4 103 -11 10 -20 22 -20 26 0 4 31 28 69 53 38 26 72 53 75 62 18 48 -13 94
-64 94 -25 0 -36 -9 -63 -46 l-32 -46 -3 186 -2 186 -208 0 -208 0 -57 -58z
m53 -22 c0 -27 -3 -30 -32 -30 l-32 0 29 30 c16 17 30 30 32 30 2 0 3 -13 3
-30z m558 -261 c3 -23 -7 -33 -72 -77 -74 -50 -110 -55 -69 -9 11 12 35 44 52
70 27 40 37 48 59 45 21 -2 28 -9 30 -29z m-168 -144 c71 -71 73 -75 61 -101
l-12 -27 -89 88 c-69 68 -87 92 -78 102 20 25 44 13 118 -62z m-28 -82 c21
-20 28 -36 28 -65 l0 -38 -49 0 -49 0 19 38 c13 24 17 47 13 65 -7 34 2 34 38
0z"/>
<path d="M260 605 c0 -9 9 -15 25 -15 16 0 25 6 25 15 0 9 -9 15 -25 15 -16 0
-25 -6 -25 -15z"/>
<path d="M347 614 c-4 -4 -7 -11 -7 -16 0 -13 50 -6 53 7 2 12 -36 19 -46 9z"/>
<path d="M425 610 c-8 -13 20 -24 41 -16 20 8 9 26 -16 26 -10 0 -22 -5 -25
-10z"/>
<path d="M54 516 c-3 -8 -4 -25 -2 -38 l3 -23 213 -3 213 -2 -3 37 -3 38 -208
3 c-174 2 -208 0 -213 -12z m116 -31 c0 -11 -12 -15 -45 -15 -33 0 -45 4 -45
15 0 11 12 15 45 15 33 0 45 -4 45 -15z m280 0 c0 -13 -21 -15 -125 -15 -104
0 -125 2 -125 15 0 13 21 15 125 15 104 0 125 -2 125 -15z"/>
<path d="M55 410 c-3 -6 0 -12 7 -15 26 -10 413 0 413 10 0 14 -411 19 -420 5z"/>
<path d="M60 350 c0 -6 77 -10 210 -10 133 0 210 4 210 10 0 6 -77 10 -210 10
-133 0 -210 -4 -210 -10z"/>
<path d="M55 300 c-3 -5 0 -13 7 -15 25 -10 238 -1 238 10 0 14 -236 19 -245
5z"/>
<path d="M60 240 c0 -6 38 -10 95 -10 57 0 95 4 95 10 0 6 -38 10 -95 10 -57
0 -95 -4 -95 -10z"/>
</g>
</svg>
