<?xml version="1.0" standalone="no"?>
<!DOCTYPE svg PUBLIC "-//W3C//DTD SVG 20010904//EN"
 "http://www.w3.org/TR/2001/REC-SVG-20010904/DTD/svg10.dtd">
<svg version="1.0" xmlns="http://www.w3.org/2000/svg"
 width="70.000000pt" height="70.000000pt" viewBox="0 0 70.000000 70.000000"
 preserveAspectRatio="xMidYMid meet">

<g transform="translate(0.000000,70.000000) scale(0.100000,-0.100000)"
fill="#000000" stroke="none">
<path d="M195 675 c-14 -13 -25 -30 -25 -37 -1 -18 -70 -48 -111 -48 -19 0
-40 -5 -47 -12 -17 -17 -17 -549 0 -566 17 -17 439 -17 456 0 9 9 12 80 12
259 l0 247 30 -26 30 -26 0 -181 c0 -161 2 -185 20 -220 11 -22 20 -45 20 -52
0 -7 5 -13 10 -13 6 0 10 7 10 15 0 8 9 29 20 47 18 30 20 51 20 221 0 159 2
187 15 187 12 0 15 -14 15 -65 0 -51 3 -65 15 -65 21 0 22 132 1 149 -13 11
-13 17 0 47 17 41 6 100 -25 128 -24 22 -72 35 -105 29 -33 -7 -86 -58 -86
-84 0 -16 -7 -19 -42 -19 -47 0 -117 29 -118 48 0 21 -47 62 -70 62 -11 0 -32
-11 -45 -25z m75 -19 c6 -8 10 -25 8 -38 -3 -20 2 -24 32 -28 29 -4 35 -9 35
-30 0 -25 -1 -25 -102 -28 l-103 -3 0 30 c0 26 4 30 33 33 27 3 32 7 29 26 -4
28 14 52 38 52 10 0 23 -6 30 -14z m-160 -111 c0 -9 -9 -15 -25 -15 l-25 0 0
-235 0 -235 185 0 185 0 -2 238 -3 237 -27 -3 c-21 -3 -28 1 -28 13 0 13 9 16
43 13 l42 -3 0 -260 0 -260 -212 -3 -213 -2 0 265 0 265 40 0 c29 0 40 -4 40
-15z m290 -195 l0 -160 -55 0 -55 0 0 -55 0 -55 -105 0 -105 0 0 215 0 215
160 0 160 0 0 -160z m220 -35 l0 -155 -30 0 -30 0 0 153 0 152 30 2 30 2 0
-154z m-240 -148 c0 -2 -13 -16 -30 -32 l-30 -29 0 32 c0 29 3 32 30 32 17 0
30 -1 30 -3z m20 -57 c0 -27 -3 -30 -32 -30 l-32 0 29 30 c16 17 30 30 32 30
2 0 3 -13 3 -30z m220 26 c0 -14 -24 -66 -30 -66 -6 0 -30 52 -30 66 0 2 14 4
30 4 17 0 30 -2 30 -4z"/>
<path d="M230 630 c0 -5 5 -10 10 -10 6 0 10 5 10 10 0 6 -4 10 -10 10 -5 0
-10 -4 -10 -10z"/>
<path d="M140 430 c0 -5 5 -10 10 -10 6 0 10 5 10 10 0 6 -4 10 -10 10 -5 0
-10 -4 -10 -10z"/>
<path d="M190 430 c0 -6 32 -10 75 -10 43 0 75 4 75 10 0 6 -32 10 -75 10 -43
0 -75 -4 -75 -10z"/>
<path d="M140 340 c0 -6 40 -10 100 -10 60 0 100 4 100 10 0 6 -40 10 -100 10
-60 0 -100 -4 -100 -10z"/>
<path d="M142 288 c3 -9 35 -14 101 -16 82 -2 97 0 97 13 0 12 -17 15 -101 15
-76 0 -100 -3 -97 -12z"/>
<path d="M144 241 c-15 -16 9 -21 97 -21 68 0 99 4 97 11 -3 10 -184 19 -194
10z"/>
</g>
</svg>
