<?xml version="1.0" standalone="no"?>
<!DOCTYPE svg PUBLIC "-//W3C//DTD SVG 20010904//EN"
 "http://www.w3.org/TR/2001/REC-SVG-20010904/DTD/svg10.dtd">
<svg version="1.0" xmlns="http://www.w3.org/2000/svg"
 width="70.000000pt" height="70.000000pt" viewBox="0 0 70.000000 70.000000"
 preserveAspectRatio="xMidYMid meet">

<g transform="translate(0.000000,70.000000) scale(0.100000,-0.100000)"
fill="#000000" stroke="none">
<path d="M124 682 c-30 -19 -34 -55 -34 -279 l0 -228 -42 0 c-39 0 -43 -2 -46
-27 -2 -17 4 -34 17 -47 20 -20 32 -21 211 -21 l190 0 0 -35 c0 -40 2 -41 35
-19 21 14 26 14 48 0 28 -19 37 -13 37 25 0 20 6 28 23 33 42 10 47 42 47 287
l0 231 43 -4 c39 -2 42 -1 45 24 2 17 -4 34 -17 47 -20 20 -32 21 -283 21
-145 0 -268 -4 -274 -8z m462 -34 c-3 -13 -6 -99 -6 -192 l0 -169 -20 26 c-21
26 -85 51 -102 41 -5 -3 -72 -5 -149 -5 -90 1 -139 -2 -139 -9 0 -6 41 -10
110 -10 108 0 110 -1 100 -20 -10 -18 -21 -20 -110 -20 -60 0 -100 -4 -100
-10 0 -6 39 -10 96 -10 80 0 95 -2 91 -14 -3 -8 -2 -28 3 -45 l8 -30 -124 -3
-124 -3 0 237 c0 215 2 238 18 247 10 6 106 11 236 11 l218 0 -6 -22z m78 6
c25 -24 19 -34 -19 -34 -24 0 -35 5 -35 15 0 11 23 32 37 35 1 0 9 -7 17 -16z
m-101 -542 c-16 -11 -18 -11 -21 7 -2 11 5 31 15 45 l18 24 3 -31 c3 -21 -2
-35 -15 -45z m-145 13 c3 -19 -2 -20 -189 -18 -189 2 -208 5 -209 36 0 4 89 6
198 5 188 -3 197 -4 200 -23z m92 -36 c0 -35 -2 -40 -14 -30 -11 9 -20 10 -35
1 -19 -10 -21 -8 -21 24 0 28 4 35 23 39 46 9 47 8 47 -34z"/>
<path d="M270 585 c0 -11 12 -15 45 -15 33 0 45 4 45 15 0 11 -12 15 -45 15
-33 0 -45 -4 -45 -15z"/>
<path d="M387 594 c-10 -11 3 -24 24 -24 10 0 19 7 19 15 0 15 -31 21 -43 9z"/>
<path d="M230 525 c0 -12 20 -15 120 -15 100 0 120 3 120 15 0 13 -20 15 -120
15 -100 0 -120 -2 -120 -15z"/>
<path d="M177 464 c-11 -12 3 -24 29 -24 15 0 24 6 24 15 0 15 -40 21 -53 9z"/>
<path d="M260 455 c0 -13 18 -15 133 -13 174 4 172 22 -3 26 -112 2 -130 0
-130 -13z"/>
<path d="M175 400 c-3 -5 -5 -10 -3 -11 2 0 31 -1 66 -2 44 -1 62 2 62 11 0
15 -116 17 -125 2z"/>
<path d="M330 398 c0 -10 23 -13 92 -11 51 1 94 5 96 10 1 4 -41 9 -93 11 -72
2 -95 0 -95 -10z"/>
</g>
</svg>
