<?xml version="1.0" standalone="no"?>
<!DOCTYPE svg PUBLIC "-//W3C//DTD SVG 20010904//EN"
 "http://www.w3.org/TR/2001/REC-SVG-20010904/DTD/svg10.dtd">
<svg version="1.0" xmlns="http://www.w3.org/2000/svg"
 width="70.000000pt" height="70.000000pt" viewBox="0 0 70.000000 70.000000"
 preserveAspectRatio="xMidYMid meet">

<g transform="translate(0.000000,70.000000) scale(0.100000,-0.100000)"
fill="#000000" stroke="none">
<path d="M34 665 l-24 -24 2 -293 3 -293 33 -3 c24 -2 32 -8 32 -23 0 -19 7
-19 228 -17 l227 3 3 141 3 140 54 54 c66 65 74 49 9 -20 -29 -31 -41 -51 -34
-55 26 -16 90 71 109 148 22 92 -31 118 -101 50 l-38 -37 0 52 c0 29 4 52 10
52 19 0 50 45 50 72 0 17 -10 39 -25 53 l-24 25 -246 0 -246 0 -25 -25z m84
-11 c29 -20 28 -32 -5 -36 l-28 -3 -3 -267 -2 -268 -25 0 -25 0 0 275 c0 262
1 276 20 295 24 24 38 25 68 4z m442 -4 c24 -24 25 -47 3 -72 -15 -16 -35 -18
-214 -18 l-197 0 5 40 c4 25 1 46 -7 55 -11 13 10 15 189 15 188 0 202 -1 221
-20z m-426 -64 c-9 -24 -34 -28 -34 -6 0 13 7 20 20 20 13 0 17 -5 14 -14z
m376 -113 c0 -55 -4 -71 -22 -90 -21 -22 -27 -23 -185 -23 -102 0 -163 -4
-163 -10 0 -6 57 -10 151 -10 97 0 148 -4 144 -10 -4 -6 -65 -10 -151 -10 -89
0 -144 -4 -144 -10 0 -6 51 -10 132 -10 l132 0 -38 -39 -39 -40 -27 21 c-75
55 -183 1 -183 -93 0 -42 19 -73 60 -100 l28 -19 -52 0 -53 0 0 255 0 255 205
0 205 0 0 -67z m157 1 c3 -9 -3 -24 -14 -35 -19 -20 -19 -20 -38 0 -14 17 -15
23 -5 36 16 20 49 19 57 -1z m-142 -104 c-38 -38 -74 -70 -79 -70 -6 0 21 32
59 70 38 39 74 70 79 70 6 0 -21 -31 -59 -70z m30 -30 c-38 -38 -74 -70 -79
-70 -6 0 21 32 59 70 38 39 74 70 79 70 6 0 -21 -31 -59 -70z m-125 -125 l-34
-35 -20 20 -20 20 34 35 34 35 20 -20 20 -20 -34 -35z m80 -70 l0 -115 -126 0
-127 0 37 25 c31 21 49 25 106 25 40 0 70 4 70 10 0 6 -28 10 -65 10 -72 0
-88 18 -37 39 16 7 53 37 83 67 29 29 55 54 56 54 2 0 3 -52 3 -115z m-140 24
c0 -5 -7 -9 -15 -9 -9 0 -15 9 -15 21 0 18 2 19 15 9 8 -7 15 -16 15 -21z"/>
<path d="M140 480 c0 -6 62 -10 165 -10 103 0 165 4 165 10 0 6 -62 10 -165
10 -103 0 -165 -4 -165 -10z"/>
<path d="M140 440 c0 -6 62 -10 165 -10 103 0 165 4 165 10 0 6 -62 10 -165
10 -103 0 -165 -4 -165 -10z"/>
<path d="M303 403 c-219 -5 -217 -23 2 -23 140 0 165 2 165 15 0 8 -1 14 -2
13 -2 -1 -76 -4 -165 -5z"/>
</g>
</svg>
