<?xml version="1.0" standalone="no"?>
<!DOCTYPE svg PUBLIC "-//W3C//DTD SVG 20010904//EN"
 "http://www.w3.org/TR/2001/REC-SVG-20010904/DTD/svg10.dtd">
<svg version="1.0" xmlns="http://www.w3.org/2000/svg"
 width="70.000000pt" height="76.000000pt" viewBox="0 0 70.000000 76.000000"
 preserveAspectRatio="xMidYMid meet">

<g transform="translate(0.000000,76.000000) scale(0.100000,-0.100000)"
fill="#000000" stroke="none">
<path d="M294 751 c-32 -14 -73 -68 -80 -106 -3 -20 -10 -38 -15 -41 -5 -3 -9
-28 -9 -56 0 -41 3 -51 20 -55 14 -4 20 -14 20 -33 0 -15 9 -39 20 -53 11 -14
20 -30 20 -35 0 -6 -25 -18 -56 -28 -78 -24 -110 -53 -123 -112 -17 -77 -24
-162 -13 -162 5 0 13 32 16 72 9 83 31 144 57 159 17 9 19 6 19 -29 0 -23 -6
-45 -15 -52 -11 -9 -15 -33 -15 -86 l0 -74 59 0 c40 0 61 -4 64 -13 3 -8 21
-21 41 -31 42 -20 101 -9 131 24 14 15 31 20 72 20 l53 0 0 75 c0 58 -4 77
-15 81 -10 4 -15 20 -15 50 0 35 3 42 15 37 26 -9 45 -60 57 -148 7 -47 16
-85 21 -85 5 0 7 19 3 45 -3 25 -9 65 -12 90 -10 73 -39 106 -117 134 -67 24
-80 38 -52 61 8 7 18 30 21 50 4 26 12 40 25 43 16 4 19 14 18 54 -1 26 -5 53
-9 58 -3 6 -12 28 -18 50 -17 60 -58 95 -118 100 -27 3 -58 1 -70 -4z m48 -46
c-5 -44 -26 -41 -30 3 -3 26 0 32 15 32 16 0 18 -6 15 -35z m53 0 c0 -20 -6
-31 -17 -33 -15 -3 -18 4 -18 33 0 29 3 36 18 33 11 -2 17 -13 17 -33z m-87
-42 c39 -31 124 1 109 42 -4 8 -2 15 3 15 16 0 50 -63 50 -92 0 -16 5 -28 10
-28 16 0 11 -27 -6 -34 -20 -8 -228 -8 -248 0 -17 7 -22 34 -6 34 6 0 10 12
10 26 0 28 14 59 39 88 15 18 16 17 19 -10 2 -16 11 -35 20 -41z m-78 -133 c0
-11 -4 -20 -10 -20 -5 0 -10 9 -10 20 0 11 5 20 10 20 6 0 10 -9 10 -20z m260
0 c0 -11 -4 -20 -10 -20 -5 0 -10 9 -10 20 0 11 5 20 10 20 6 0 10 -9 10 -20z
m-40 -44 c0 -48 -3 -57 -31 -80 -43 -36 -98 -36 -139 2 -24 21 -32 38 -37 80
l-6 52 107 0 106 0 0 -54z m-40 -126 c-1 -3 -14 -21 -31 -40 l-30 -35 -29 35
c-16 19 -30 37 -30 40 0 3 27 5 60 5 33 0 60 -2 60 -5z m-96 -60 c17 -22 33
-40 36 -40 3 0 19 18 36 40 18 25 37 40 52 40 20 0 22 -4 22 -61 l0 -62 -47 8
c-27 4 -61 7 -78 5 -16 -1 -46 -3 -65 -4 l-35 -1 2 55 c1 30 2 56 2 58 1 1 11
2 24 2 14 0 33 -15 51 -40z m-74 -90 c22 0 26 -20 9 -37 -7 -7 -12 -30 -12
-52 l0 -41 -43 0 -44 0 0 54 c0 35 5 58 15 66 10 8 15 30 15 61 0 35 5 51 18
58 15 9 17 4 20 -50 3 -51 6 -59 22 -59z m280 51 c0 -31 5 -53 15 -61 10 -8
15 -31 15 -66 l0 -54 -46 0 c-39 0 -45 3 -40 18 5 16 -2 52 -19 95 -5 13 -2
17 14 17 19 0 21 6 21 60 0 58 1 60 20 50 16 -8 20 -21 20 -59z"/>
<path d="M180 180 c0 -5 12 -10 26 -10 14 0 23 4 19 10 -3 6 -15 10 -26 10
-10 0 -19 -4 -19 -10z"/>
<path d="M470 180 c0 -5 11 -10 25 -10 14 0 25 5 25 10 0 6 -11 10 -25 10 -14
0 -25 -4 -25 -10z"/>
</g>
</svg>
