<?xml version="1.0" standalone="no"?>
<!DOCTYPE svg PUBLIC "-//W3C//DTD SVG 20010904//EN"
 "http://www.w3.org/TR/2001/REC-SVG-20010904/DTD/svg10.dtd">
<svg version="1.0" xmlns="http://www.w3.org/2000/svg"
 width="256.000000pt" height="256.000000pt" viewBox="0 0 256.000000 256.000000"
 preserveAspectRatio="xMidYMid meet">

<g transform="translate(0.000000,256.000000) scale(0.100000,-0.100000)"
fill="#111" stroke="none">
<path d="M1115 2469 c-157 -23 -353 -100 -499 -197 -91 -61 -248 -217 -308
-307 -62 -94 -120 -213 -151 -310 -94 -288 -69 -621 66 -892 l34 -68 -83 -304
c-46 -167 -83 -305 -82 -306 2 -2 143 34 315 79 l311 82 44 -22 c66 -34 204
-80 298 -100 177 -38 439 -20 613 43 447 159 746 541 798 1019 50 464 -206
934 -630 1157 -215 114 -485 161 -726 126z m415 -219 c106 -27 265 -103 350
-168 188 -142 326 -359 375 -587 27 -126 23 -314 -9 -440 -106 -410 -439 -698
-859 -746 -184 -20 -364 13 -543 102 l-102 50 -176 -47 c-98 -25 -179 -44
-182 -41 -3 3 15 83 41 177 l47 172 -61 121 c-85 172 -106 261 -106 452 0 125
4 164 23 234 102 377 386 649 762 730 124 27 313 23 440 -9z"/>
<path d="M790 1804 c-22 -20 -54 -65 -72 -101 -80 -163 -16 -351 205 -605 162
-184 358 -308 580 -365 114 -29 230 -4 311 67 51 45 67 82 69 154 l2 61 -128
62 c-70 35 -138 65 -150 68 -19 5 -33 -6 -86 -70 -34 -42 -69 -79 -77 -82 -19
-7 -157 59 -219 106 -27 21 -72 60 -99 87 -49 50 -136 170 -136 189 0 6 23 41
50 79 28 38 50 75 50 82 0 18 -96 250 -116 282 -13 19 -23 22 -79 22 -61 0
-68 -2 -105 -36z"/>
</g>
</svg>
